<?xml version="1.0" encoding="utf-8"?>
<!-- Generator: Adobe Illustrator 27.8.0, SVG Export Plug-In . SVG Version: 6.00 Build 0)  -->
<svg version="1.1" id="Layer_1" xmlns="http://www.w3.org/2000/svg" xmlns:xlink="http://www.w3.org/1999/xlink" x="0px" y="0px"
	 viewBox="0 0 517.1 80.8" style="enable-background:new 0 0 517.1 80.8;" xml:space="preserve">
<style type="text/css">
	.st0{fill:#D01F3C;}
	.st1{fill:#FFFFFF;}
</style>
<g>
	<path class="st0" d="M280.5,38.6C280.5,38.6,280.5,38.6,280.5,38.6L280.5,38.6C280.5,38.6,280.5,38.6,280.5,38.6c0,0,0.1,0,0.1,0
		c6.5-3.5,13.8-12.3,13.8-22.1c0-12-11.6-16.5-26.6-16.5h-35.6l-7.8,38.6l-8.1,40.3h36.3c23.2,0,37.3-6.1,37.3-27.1
		C289.9,45.2,286.7,40.4,280.5,38.6z M255,60.7h-10.7l0,0l2.9-13.4h7.8c7.8,0,12.2,0.7,12.2,5.3C267.2,60.3,261,60.7,255,60.7z
		 M260.3,33h-10.1l2.7-13.4h8.6c5.2,0,8.9,0.6,8.9,4.5C270.3,30.2,265.2,33,260.3,33z"/>
	<polygon class="st0" points="443.1,0 439.4,18.6 476.5,18.6 455.2,38.6 432.4,60.2 428.6,78.9 495.7,78.9 499.4,60.7 461.8,60.7 
		485,38.6 506.4,18.3 506.5,18.3 510.2,0 	"/>
	<path class="st0" d="M364.6,44.7l1.2-6.1L373.6,0h-24.4l-7.8,38.6l-1.8,8.7c-1.8,8.6-5.5,14.5-14.3,14.5c-7.2,0-9.3-3.4-9.3-8.3
		c0-1.9,0.3-3.9,0.7-6.1l1.8-8.7L326.3,0h-24.4l-7.8,38.6l-1.2,6c-0.9,4.4-1.3,8.7-1.3,12.3c0,17.8,10.9,24.2,30,24.2
		C346.3,81.1,359.5,70,364.6,44.7L364.6,44.7z"/>
	<polygon class="st0" points="392,60.7 415.3,38.6 415.3,38.6 436.7,18.3 440.4,0 376.2,0 372.5,18.6 406.7,18.6 385.5,38.6 
		362.6,60.2 358.8,78.9 425.9,78.9 429.7,60.7 	"/>
	<path class="st1" d="M75.4,49.4H51.7c-2.5,7.2-7.4,12.9-15.4,12.9c-8.9,0-11.6-5.1-11.6-11.9c0-2.1,0.4-6.1,1.4-10.7
		c2.2-9.3,7.4-20.8,18.2-20.8c7,0,10.9,3.6,10.9,10.3c0,0.7-0.1,1.4-0.2,2.1h23.5c0.2-1.7,0.3-3.2,0.3-4.7C78.9,9.7,68.4,0,47.3,0
		C26.7,0,6.4,16.1,1.2,39.7C0.4,43.5,0,47.3,0,51.4c0,18.5,11.7,29.7,32.7,29.7C52.6,81.1,69,69.2,75.4,49.4z"/>
	<path class="st1" d="M135.1,39.7l-5.3-37.5h-25.1l-21,37.5h0l-22,39.2h24.2l5-10.1h24.6l0,0l0.7,10.1h24.6L135.1,39.7L135.1,39.7z
		 M113.3,39.7l0.8,9.7h-13.7l4.7-9.7h0l7-14.4"/>
	<path class="st1" d="M206.4,39.7L206.4,39.7c11.1-2.5,16.6-10.8,16.6-21.7c0-10.8-8.2-15.8-29.6-15.8h-35.6L150,39.7h0l-8.2,39.2
		h24.7l6.4-29.9h7.5c8.5,0,11.2,1.8,11.2,6.9c0,4.1-2.8,14.6-4.6,23.1h23.5c2.2-10.5,2.1-10.6,4.7-24.4
		C216.5,47.3,212.6,42.1,206.4,39.7z M198.7,26c-0.9,4.3-4,6.1-12.7,6.1h-9.7l2.5-12.2h11.5C196,19.9,199.5,22.5,198.7,26z"/>
</g>
</svg>
