<?xml version="1.0" encoding="UTF-8"?> <svg xmlns="http://www.w3.org/2000/svg" width="525" height="94" viewBox="0 0 525 94" fill="none"><path d="M220.5 0H106L51 94H166L220.5 0Z" fill="#F3F3F3"></path><path d="M112.361 73.9921V37.5935H157.437V48.1737H130.071V50.6057H150.452V60.8385H130.071V63.2705H157.425V73.9921H112.361Z" fill="black"></path><path d="M39.2022 49.9958V74.0003H15.3836V49.9958H0V37.5936H54.5373V49.9958H39.2022Z" fill="black"></path><path d="M87.0105 74.0002V61.8323H79.5531V74.0002H55.6415V37.5935H79.5531V49.8058H87.0105V37.5935H110.922V74.0002H87.0105Z" fill="black"></path><path d="M228.25 73.9919H185.303V20H227.886C252.428 20 263.073 29.4693 263.695 45.5073V47.0303C263.42 64.1065 252.565 73.9919 228.234 73.9919M236.111 46.1335C236.111 38.3892 230.654 35.5532 222.635 35.5532H211.848V58.2286H222.703C231.688 58.2286 236.111 54.8392 236.111 47.3212V46.1335Z" fill="black"></path><path d="M371.608 20H344.371V73.9919H371.608V20Z" fill="black"></path><path d="M426.542 73.9919H402.279L371.31 20H400.069L415.069 48.2746L430.069 20H457.652L426.542 73.9919Z" fill="black"></path><path d="M344.808 73.9926L330.119 55.0257C335.181 52.2746 338.534 47.4713 339.035 39.4806V38.4221C338.207 26.3593 329.521 20.1501 312.627 20.1501H263.539V74.0007H290.772V58.2454H303.408L315.039 74.0007L344.808 73.9926ZM290.703 47.0188V35.4125H305.246C309.314 35.4125 312.554 36.6527 313.451 40.1714C313.543 40.7684 313.543 41.3761 313.451 41.9731C312.829 45.8352 309.856 47.0188 305.994 47.0188H290.703Z" fill="black"></path><path d="M457.501 73.9919V20H524.368V35.6906H483.772V39.3022H514.006V54.4837H483.772V58.0913H524.352V73.9919H457.501Z" fill="black"></path><path d="M176.709 20L145.388 73.9919H177.889L208.999 20H176.709Z" fill="black"></path><path d="M208.999 20H176.709L145.303 73.992L177.889 73.9919L208.999 20Z" fill="url(#paint0_linear_1063_28239)"></path><defs><linearGradient id="paint0_linear_1063_28239" x1="255.584" y1="1.622" x2="255.584" y2="94.3385" gradientUnits="userSpaceOnUse"><stop stop-color="#F8AD42"></stop><stop offset="0.29" stop-color="#F8AD42"></stop><stop offset="0.65" stop-color="#F79B40"></stop><stop offset="1" stop-color="#F68D3F"></stop></linearGradient></defs></svg> 